<svg width="220" height="64" viewBox="0 0 220 64" fill="none" xmlns="http://www.w3.org/2000/svg">
  <defs>
    <linearGradient id="haloLight" x1="8" y1="8" x2="54" y2="0" gradientUnits="userSpaceOnUse">
      <stop offset="0" stop-color="#8C49FF" stop-opacity="0.85" />
      <stop offset="1" stop-color="#FF5AA5" stop-opacity="0.85" />
    </linearGradient>
    <linearGradient id="cubeTopLight" x1="16" y1="12" x2="48" y2="30" gradientUnits="userSpaceOnUse">
      <stop offset="0" stop-color="#D4C5FF" />
      <stop offset="1" stop-color="#FFBEE6" />
    </linearGradient>
    <linearGradient id="cubeFrontLight" x1="16" y1="24" x2="30" y2="48" gradientUnits="userSpaceOnUse">
      <stop offset="0" stop-color="#AF9CFF" />
      <stop offset="1" stop-color="#FF7FBF" />
    </linearGradient>
    <linearGradient id="cubeSideLight" x1="24" y1="24" x2="48" y2="50" gradientUnits="userSpaceOnUse">
      <stop offset="0" stop-color="#B699FF" />
      <stop offset="1" stop-color="#FF69B2" />
    </linearGradient>
  </defs>
  <g transform="translate(8 8)">
    <ellipse cx="28" cy="8" rx="20" ry="6" fill="none" stroke="url(#haloLight)" stroke-width="2.5" stroke-linecap="round" />
    <polygon points="28,14 46,22 28,30 10,22" fill="url(#cubeTopLight)" />
    <polygon points="10,22 28,30 28,52 10,42" fill="url(#cubeFrontLight)" />
    <polygon points="28,30 46,22 46,42 28,52" fill="url(#cubeSideLight)" />
    <path d="M11 41L27.5 49.5" stroke="#FFE6F6" stroke-opacity="0.75" stroke-width="2" stroke-linecap="round" />
    <path d="M29 30L45 22" stroke="#F5DBFF" stroke-opacity="0.65" stroke-width="1.6" />
  </g>
  <text x="92" y="39" fill="#1F0B2C" font-family="'Poppins', 'Segoe UI', 'Inter', sans-serif" font-size="34" font-weight="600" letter-spacing="0.02em">Sugar</text>
  <text x="174" y="39" fill="#4E2A7F" font-family="'Poppins', 'Segoe UI', 'Inter', sans-serif" font-size="34" font-weight="300" letter-spacing="0.04em">Saint</text>
</svg>
