<svg xmlns="http://www.w3.org/2000/svg" viewBox="0 0 1200 650" style="background-color: #FFFBF5;">
  <!-- Grid Lines -->
  <g stroke="#E5E5E5" stroke-width="1" opacity="0.5">
    <line x1="100" y1="100" x2="100" y2="500" />
    <line x1="100" y1="500" x2="1100" y2="500" />
    <line x1="100" y1="400" x2="1100" y2="400" stroke-dasharray="4,4" />
    <line x1="100" y1="300" x2="1100" y2="300" stroke-dasharray="4,4" />
    <line x1="100" y1="200" x2="1100" y2="200" stroke-dasharray="4,4" />
    <line x1="100" y1="100" x2="1100" y2="100" stroke-dasharray="4,4" />
  </g>

  <!-- Y-Axis (Consumption) -->
  <text x="20" y="300" font-family="Inter, sans-serif" font-size="14" fill="#000000" font-weight="600" transform="rotate(-90 20 300)">
    Vegetable Oil Consumption (Million Metric Tons)
  </text>
  <text x="70" y="510" font-family="Inter, sans-serif" font-size="12" fill="#000000" text-anchor="end">0</text>
  <text x="70" y="410" font-family="Inter, sans-serif" font-size="12" fill="#000000" text-anchor="end">5</text>
  <text x="70" y="310" font-family="Inter, sans-serif" font-size="12" fill="#000000" text-anchor="end">10</text>
  <text x="70" y="210" font-family="Inter, sans-serif" font-size="12" fill="#000000" text-anchor="end">15</text>
  <text x="70" y="110" font-family="Inter, sans-serif" font-size="12" fill="#000000" text-anchor="end">20</text>

  <!-- X-Axis (Years) -->
  <text x="600" y="550" font-family="Inter, sans-serif" font-size="16" fill="#000000" font-weight="600" text-anchor="middle">Year</text>
  <text x="120" y="530" font-family="Inter, sans-serif" font-size="13" fill="#000000" text-anchor="middle">1909</text>
  <text x="270" y="530" font-family="Inter, sans-serif" font-size="13" fill="#000000" text-anchor="middle">1930</text>
  <text x="410" y="530" font-family="Inter, sans-serif" font-size="13" fill="#000000" text-anchor="middle">1950</text>
  <text x="550" y="530" font-family="Inter, sans-serif" font-size="13" fill="#000000" text-anchor="middle">1970</text>
  <text x="690" y="530" font-family="Inter, sans-serif" font-size="13" fill="#000000" text-anchor="middle">1990</text>
  <text x="830" y="530" font-family="Inter, sans-serif" font-size="13" fill="#000000" text-anchor="middle">2000</text>
  <text x="970" y="530" font-family="Inter, sans-serif" font-size="13" fill="#000000" text-anchor="middle">2010</text>
  <text x="1080" y="530" font-family="Inter, sans-serif" font-size="13" fill="#000000" text-anchor="middle">2019</text>

  <!-- Total Vegetable Oil Consumption Area (filled Sacred Gold gradient) -->
  <path
    d="M 120,495 L 150,494 L 180,493 L 210,492 L 240,490 L 270,485 L 300,478 L 330,468 L 360,455 L 390,438 L 420,418 L 450,395 L 480,368 L 510,340 L 540,310 L 570,280 L 600,255 L 630,235 L 660,220 L 690,210 L 720,205 L 750,202 L 780,200 L 810,195 L 840,188 L 870,180 L 900,170 L 930,160 L 960,148 L 990,135 L 1020,122 L 1050,110 L 1080,100 L 1080,500 L 120,500 Z"
    fill="url(#paint0_gradient)"
    opacity="0.3"
  />

  <!-- Total consumption line (Sacred Gold, bold) -->
  <polyline
    points="120,495 150,494 180,493 210,492 240,490 270,485 300,478 330,468 360,455 390,438 420,418 450,395 480,368 510,340 540,310 570,280 600,255 630,235 660,220 690,210 720,205 750,202 780,200 810,195 840,188 870,180 900,170 930,160 960,148 990,135 1020,122 1050,110 1080,100"
    fill="none"
    stroke="#D4AF37"
    stroke-width="4"
    stroke-linecap="round"
  />

  <!-- Vertical line marking 1970 (when AHA recommended seed oils) -->
  <line x1="550" y1="500" x2="550" y2="280" stroke="#D4AF37" stroke-width="2" stroke-dasharray="6,3" opacity="0.7" />

  <!-- Annotation for 1970 -->
  <g opacity="0.9">
    <text x="560" y="265" font-family="Inter, sans-serif" font-size="12" fill="#000000" font-weight="600">
      1970: AHA recommends
    </text>
    <text x="560" y="282" font-family="Inter, sans-serif" font-size="12" fill="#000000" font-weight="600">
      vegetable oils over
    </text>
    <text x="560" y="299" font-family="Inter, sans-serif" font-size="12" fill="#000000" font-weight="600">
      saturated fat
    </text>
  </g>

  <!-- Annotation showing 1000% increase with arrow -->
  <g opacity="0.8">
    <!-- Arrow line from 1970 point to 2019 point -->
    <line x1="550" y1="280" x2="1080" y2="100" stroke="#000000" stroke-width="2" />
    <!-- Arrow head -->
    <polygon points="1080,100 1073,105 1075,112" fill="#000000" />
    <!-- Text label -->
    <text x="790" y="170" font-family="Inter, sans-serif" font-size="14" fill="#000000" font-style="italic" font-weight="600">
      1000% increase
    </text>
    <text x="790" y="188" font-family="Inter, sans-serif" font-size="14" fill="#000000" font-style="italic" font-weight="600">
      (1909-2019)
    </text>
  </g>

  <!-- Legend -->
  <rect x="900" y="55" width="200" height="40" fill="#FFFBF5" stroke="#E5E5E5" stroke-width="1" rx="4" />
  <line x1="915" y1="75" x2="955" y2="75" stroke="#D4AF37" stroke-width="4" />
  <text x="965" y="80" font-family="Inter, sans-serif" font-size="14" fill="#000000" font-weight="500">Total Vegetable Oil</text>

  <!-- Data Source Citation with AHA note -->
  <text x="600" y="600" font-family="Inter, sans-serif" font-size="11" fill="#666666" font-style="italic" text-anchor="middle">
    Source: USDA Economic Research Service | Analysis: Nutrients 2023, 15(14), 3129 | AHA = American Heart Association
  </text>

  <!-- Gradient Definition -->
  <defs>
    <linearGradient id="paint0_gradient" x1="600" y1="100" x2="600" y2="500" gradientUnits="userSpaceOnUse">
      <stop offset="0%" stop-color="#D4AF37" stop-opacity="0.4"/>
      <stop offset="100%" stop-color="#D4AF37" stop-opacity="0.1"/>
    </linearGradient>
  </defs>
</svg>
